<svg width="369.6052660633474" height="273.6" viewBox="0 -5 350 259.0872176144468" class="css-1j8o68f"><defs id="SvgjsDefs1045"><linearGradient id="SvgjsLinearGradient1052"><stop id="SvgjsStop1053" stop-color="#ef4136" offset="0"></stop><stop id="SvgjsStop1054" stop-color="#fbb040" offset="1"></stop></linearGradient><linearGradient id="SvgjsLinearGradient1055"><stop id="SvgjsStop1056" stop-color="#ef4136" offset="0"></stop><stop id="SvgjsStop1057" stop-color="#fbb040" offset="1"></stop></linearGradient></defs><g id="SvgjsG1046" featurekey="symbolFeature-0" transform="matrix(1.7753938261069802,0,0,1.7753938261069802,111.27956574153087,-7.101610437238409)" fill="url(#SvgjsLinearGradient1052)"><g xmlns="http://www.w3.org/2000/svg"><g><path fill="url(#SvgjsLinearGradient1052)" d="M44.873,2.446c-13.465-5.813-21.469,9.813-14.12,19.163C32.176,11.937,38.708,7.375,44.873,2.446z     M14.616,23.626c-3.472,1.906-4.914,5.843-9.077,7.059c1.598,7.577-4.641,14.246,2.017,8.068v-7.059    c6.161-3.368,10.435-13.613,20.171-10.086c-3.051-4.271-1.041-13.372-2.017-17.146c-5.202,1.443-10.108,6.544-7.061,13.111    c-5.634-3.014-17.388,1.233-16.137,5.043C4.809,20.716,13.539,20.96,14.616,23.626z M13.945,38.753c0,0,2.877-4.601,7.313-6.975    c0.824-0.441-7.985,0-7.985,0L13.945,38.753z M33.779,21.608c5.575-7.2,14.416-11.136,27.232-11.094    C53.39-4.303,31.962,11.711,33.779,21.608z M67.063,36.737c-3.7-10.131-18.396-13.015-32.274-11.095    c27.511,6.801-4.269,35.25,0,49.421c2.032,6.749,15.094,11.283,26.222,7.06c-23.024-4.493,1.187-45.024-15.128-53.454    c20.691,5.66-2.267,41.805,13.11,44.377c-4.249-2.781-3.641-5.699-3.049-7.016C61.257,56.311,71.668,49.348,67.063,36.737z     M35.797,22.617c18.77-3.389,33.964,4.848,36.309,21.18C86.421,15.989,49.034,5.956,35.797,22.617z M34.789,28.668    c8.168,10.069,2.536,26.342-14.122,23.196c1.136,2.898,0.205,7.865,2.019,10.086c1.627-6.438,6.64-9.498,16.137-8.069    C42.995,47.099,43.974,30.482,34.789,28.668z M17.585,68.788c-0.096,0.069-0.242,0.198-0.446,0.399    c-0.604,0.459-1.363,0.763-2.371,0.815c-0.081-0.014-0.158-0.03-0.234-0.05c-0.535-0.438-3.771-3.168-3.961-5.483    c0.149-0.22,0.389-0.449,0.781-0.614c0.038-0.011,0.073-0.022,0.111-0.034c2.338-0.229,3.041,1.177,5.169,1.154    c-0.603-1.795,2.955-4.188,0-5.041c-5.859,6.5-18.003-1.564-12.103-10.086c-3.632-0.27-4.86,1.864-8.068,2.017    c6.749,9.724,14.194,18.75,25.213,24.207c-1.135-2.9-0.203-7.866-2.016-10.086C18.963,66.914,18.403,67.981,17.585,68.788z"></path></g></g></g><g id="SvgjsG1047" featurekey="nameFeature-0" transform="matrix(1.2706941508049643,0,0,1.2706941508049643,-2.744699171846183,153.37815957588722)" fill="#ffffff"><path d="M2.16 25.48 c0 -8.4 5.64 -14.16 13.6 -14.76 l0 0.24 c-5.84 0.64 -9.96 5.88 -9.96 14.52 c0 8.76 4.12 13.96 9.96 14.48 l0 0.24 c-7.92 -0.48 -13.6 -6.24 -13.6 -14.72 z M18.56 10.719999999999999 c3.48 0.16 6.52 0.96 7.88 1.84 l0.24 6.96 l-0.12 0.04 c-1.36 -5.48 -3.32 -8.16 -8 -8.6 l0 -0.24 z M18.56 40.2 l0 -0.24 c4.24 -0.36 6 -2.32 6 -7.52 c0 -4.52 -1.04 -5.56 -3.12 -5.88 l0 -0.12 l7.96 0 l0 0.12 c-1.2 0.32 -1.92 1.48 -1.92 5.88 c0 4.8 0.08 5.64 0.52 7.52 l-0.08 0.08 l-2.08 -2.08 c-1.24 1.04 -3.88 2 -7.28 2.24 z M39.519999999999996 33.64 c0 4.8 0.76 5.8 2.24 6.2 l0 0.16 l-7.56 0 l0 -0.16 c1.2 -0.36 1.92 -1.36 1.92 -5.64 l0 -17.32 c0 -4.28 -0.72 -5.28 -1.92 -5.64 l0 -0.16 l5.32 0 l0 22.56 z M53.8 36.04 c1.4 2.36 2.2 3.56 2.96 3.76 l0 0.2 l-4.84 0 l-7.08 -13.48 c-0.8 0.08 -1.68 0.16 -2.6 0.16 l-0.04 -0.2 c5.44 -0.2 7.32 -3.36 7.32 -7.48 c0 -4 -1.6 -7.48 -7.36 -7.68 l0 -0.24 c8.36 0.08 11 3.88 11 7.92 c0 3.48 -2.52 6.6 -7.88 7.44 l0 0.12 c0.92 0.36 2.32 0.8 3.52 1.12 z M66.68 11.239999999999998 c-1.28 0.36 -1.92 1.36 -1.92 5.64 l0 17.32 c0 4.28 0.64 5.28 1.92 5.64 l0 0.16 l-7.24 0 l0 -0.16 c1.2 -0.36 1.92 -1.36 1.92 -5.64 l0 -17.32 c0 -4.28 -0.72 -5.28 -1.92 -5.64 l0 -0.16 l7.24 0 l0 0.16 z M70.24000000000001 18.96 l0.36 -7.88 l7.48 0 l0 0.24 l-0.44 0.04 c-4.4 0.16 -6 2.16 -7.24 7.68 z M84.16 34.2 c0 4.28 0.72 5.28 2.12 5.64 l0 0.16 l-7.64 0 l0 -0.16 c1.32 -0.36 2.12 -1.36 2.12 -5.64 l0 -23.12 l3.4 0 l0 23.12 z M94.32000000000001 11.079999999999998 l0.36 7.88 l-0.12 0.08 c-1.24 -5.52 -2.96 -7.52 -7.28 -7.68 l-0.4 -0.04 l0 -0.24 l7.44 0 z M111.16000000000001 18.24 c0 -3.88 2.28 -6.84 5.84 -7.44 l0 0.24 c-2.28 0.76 -3.72 2.96 -3.72 5.72 c0 2.52 0.92 4.68 4.08 8.56 l5.04 6.28 c4.56 5.68 6.56 6.72 8.4 6.72 c1.56 0 2.8 -1.08 3.36 -2.96 l0.12 0.08 c-0.28 2.36 -1.88 4.8 -4.84 4.8 c-2.88 0 -6.2 -2.2 -12.76 -10.16 c-4.28 -5.28 -5.52 -8.84 -5.52 -11.84 z M125.32000000000002 16.76 c0 3.56 -2.72 5.68 -6.64 6.28 l-0.08 -0.16 c3 -0.84 4.52 -3 4.52 -6 c0 -3.24 -1.24 -5.2 -3.44 -5.84 l0 -0.24 c3.56 0.52 5.64 3.24 5.64 5.96 z M125.76000000000002 31.36 c0.48 -1.24 0.64 -2.44 0.64 -3.4 c0 -1.48 -0.64 -2.36 -2.84 -2.72 l0 -0.16 l7.4 0 l0 0.16 c-2.36 0.4 -3.32 1.44 -3.92 3.2 c-0.32 1.08 -0.64 2.08 -1.12 3 z M104.84000000000002 32.4 c0 -3.96 2.72 -6.32 5.92 -7 l0.04 0.16 c-2.24 1.12 -3.32 3 -3.32 5.72 c0 4.64 3.32 8.12 8.2 8.12 c1.8 0 3.24 -0.4 4.52 -1.08 l0.12 0.12 c-1.56 1.12 -3.56 1.8 -6.2 1.8 c-5.12 0 -9.28 -3.04 -9.28 -7.84 z M143.56 25.48 c0 -8.4 5.64 -14.16 13.6 -14.76 l0 0.24 c-5.84 0.64 -9.96 5.88 -9.96 14.52 c0 8.76 4.12 13.96 9.96 14.48 l0 0.24 c-7.92 -0.48 -13.6 -6.24 -13.6 -14.72 z M159.96 10.719999999999999 c3.48 0.16 6.52 0.96 7.88 1.84 l0.24 6.96 l-0.12 0.04 c-1.36 -5.48 -3.32 -8.16 -8 -8.6 l0 -0.24 z M159.96 40.2 l0 -0.24 c4.24 -0.36 6 -2.32 6 -7.52 c0 -4.52 -1.04 -5.56 -3.12 -5.88 l0 -0.12 l7.96 0 l0 0.12 c-1.2 0.32 -1.92 1.48 -1.92 5.88 c0 4.8 0.08 5.64 0.52 7.52 l-0.08 0.08 l-2.08 -2.08 c-1.24 1.04 -3.88 2 -7.28 2.24 z M180.92 33.64 c0 4.8 0.76 5.8 2.24 6.2 l0 0.16 l-7.56 0 l0 -0.16 c1.2 -0.36 1.92 -1.36 1.92 -5.64 l0 -17.32 c0 -4.28 -0.72 -5.28 -1.92 -5.64 l0 -0.16 l5.32 0 l0 22.56 z M195.2 36.04 c1.4 2.36 2.2 3.56 2.96 3.76 l0 0.2 l-4.84 0 l-7.08 -13.48 c-0.8 0.08 -1.68 0.16 -2.6 0.16 l-0.04 -0.2 c5.44 -0.2 7.32 -3.36 7.32 -7.48 c0 -4 -1.6 -7.48 -7.36 -7.68 l0 -0.24 c8.36 0.08 11 3.88 11 7.92 c0 3.48 -2.52 6.6 -7.88 7.44 l0 0.12 c0.92 0.36 2.32 0.8 3.52 1.12 z M221.8 33.480000000000004 c1.96 5.16 2.72 6 4.12 6.36 l0 0.16 l-8.56 0 l0 -0.16 c1.84 -0.48 2.56 -1.72 1.24 -5.28 l-1.72 -4.6 l-9.24 -0.16 l0.08 -0.2 l9 -0.2 l-5.88 -15.88 l0.96 -2.44 l1.56 0 z M203.24 34.28 c-1.36 3.72 -0.52 5.08 2.16 5.56 l0 0.16 l-7.16 0 l0 -0.16 c1.68 -0.44 2.76 -1.6 4.16 -5.2 l7.24 -18.16 l0.08 0.28 z M228.32 25.48 c0 -8.4 5.6 -14.16 13.32 -14.76 l0 0.24 c-5.72 0.72 -9.68 5.84 -9.68 14.52 c0 8.56 3.96 13.76 9.68 14.48 l0 0.24 c-7.72 -0.6 -13.32 -6.44 -13.32 -14.72 z M244.44 10.96 l0 -0.24 c3.2 0.16 5.68 0.96 7.08 1.84 l0.24 6.96 l-0.16 0.04 c-1.32 -5.48 -3.2 -8.16 -7.16 -8.6 z M244.44 40.2 l0 -0.24 c4.36 -0.52 6.76 -3.36 8.04 -8.72 l0.16 0.04 l-0.84 7.2 c-1.72 0.96 -4.44 1.6 -7.36 1.72 z M257.44 11.239999999999998 l0 -0.16 l5.32 0 l0 28.92 l-5.32 0 l0 -0.16 c1.2 -0.36 1.92 -1.36 1.92 -5.64 l0 -17.32 c0 -4.28 -0.72 -5.28 -1.92 -5.64 z M276.04 19.04 c-1.32 -5.52 -3.12 -7.28 -7.96 -7.56 l-2.68 -0.16 l0 -0.24 l10.4 0 l0.36 7.88 z M267.4 24.68 c4.2 -0.16 5.2 -1.28 5.8 -3.64 l0.12 0 l0 8.2 l-0.12 0 c-0.6 -2.64 -1.6 -4.16 -5.8 -4.24 l-1.96 -0.04 l0 -0.24 z M277.48 31.84 l0.12 0.08 l-0.88 8.08 l-11.32 0 l0 -0.24 l2.76 -0.16 c4.8 -0.24 7.6 -1.92 9.32 -7.76 z"></path></g><g id="SvgjsG1048" featurekey="sloganFeature-0" transform="matrix(1.939134772555051,0,0,1.939134772555051,114.00000046232576,215.30432891117928)" fill="url(#SvgjsLinearGradient1055)"><path d="M6.62 18.92 c-0.78666 0.72 -1.8534 1.0801 -3.2 1.0801 l-3.42 0 l0 -15 l2.92 0 c0.8 0 1.4667 0.10334 2 0.31 s0.96 0.48666 1.28 0.84 s0.54334 0.76334 0.67 1.23 s0.19 0.95332 0.19 1.46 c0 0.54666 -0.16334 1.0633 -0.49 1.55 s-0.76332 0.94332 -1.31 1.37 c0.21334 0.13334 0.38 0.23668 0.5 0.31002 s0.23334 0.14334 0.34 0.21 c0.17334 0.14666 0.36668 0.32332 0.58002 0.52998 s0.41 0.44666 0.59 0.72 s0.33 0.58334 0.45 0.93 s0.18 0.73332 0.18 1.16 c0 0.74666 -0.11 1.3867 -0.33 1.92 s-0.53666 0.99334 -0.95 1.38 z M3.4 6 l-2.36 0.000039062 l0 5.4 l2.56 0 c0.36 0 0.69 -0.06666 0.99 -0.2 s0.56 -0.31668 0.78 -0.55002 s0.39334 -0.50334 0.52 -0.81 s0.19 -0.64 0.19 -1 c0 -0.25334 -0.03666 -0.54668 -0.11 -0.88002 s-0.21 -0.64334 -0.41 -0.93 s-0.47334 -0.53 -0.82 -0.73 s-0.79332 -0.3 -1.34 -0.3 z M3.52 12.4002 l-2.48 0.000039062 l0 6.54 l2.14 0 c0.44 0 0.88 -0.05334 1.32 -0.16 s0.84 -0.28666 1.2 -0.54 s0.65 -0.58668 0.87 -1 s0.33 -0.92668 0.33 -1.54 c0 -0.56 -0.08666 -1.05 -0.26 -1.47 s-0.41334 -0.76334 -0.72 -1.03 s-0.66666 -0.46666 -1.08 -0.6 s-0.85334 -0.2 -1.32 -0.2 z M18.478500000000004 20 l-1.1 -4.42 l-4.88 0 l-1.1 4.42 l-1 0 l4.14 -15 l0.86 0 l4.12 15 l-1.04 0 z M14.998500000000002 5.9399999999999995 l-2.26 8.68 l4.38 0 z M28.997 20 l-3.52 -8.14 l-2.04 3.06 l0 5.08 l-1 0 l0 -15 l1 0 l0 7.9 l5.08 -7.9 l1.24 0 l-3.52 6.1 l3.92 8.9 l-1.16 0 z M33.5555 20 l0 -15 l7.36 0 l0 1.16 l-6.32 0 l0 5.7 l6.26 0 l0 0.92 l-6.26 0 l0 6.06 l6.46 0 l0 1.16 l-7.5 0 z M51.634 20 l-3.3 -6.22 l-3.06 0 l0 6.22 l-0.98 0 l0 -15 l3.4 0 c0.78666 0 1.46 0.11666 2.02 0.35 s1.02 0.55 1.38 0.95 s0.62666 0.86334 0.8 1.39 s0.26 1.0767 0.26 1.65 c0 0.97334 -0.25 1.85 -0.75 2.63 s-1.1567 1.35 -1.97 1.71 l3.52 6.32 l-1.32 0 z M47.554 5.92 l-2.28 -0.000019531 l0 6.84 l2.42 0 c0.68 0 1.24 -0.10334 1.68 -0.31 s0.78334 -0.47332 1.03 -0.79998 s0.42 -0.7 0.52 -1.12 s0.15 -0.85 0.15 -1.29 c0 -0.46666 -0.08 -0.9 -0.24 -1.3 s-0.39 -0.75 -0.69 -1.05 s-0.66666 -0.53666 -1.1 -0.71 s-0.93 -0.26 -1.49 -0.26 z M59.5525 13.14 l0 6.86 l-1.08 0 l0 -6.86 l-3.62 -8.14 l1.24 0 l2.9 6.94 l2.94 -6.94 l1.24 0 z"></path></g></svg>